<?xml version="1.0" standalone="no"?>
<!DOCTYPE svg PUBLIC "-//W3C//DTD SVG 20010904//EN"
 "http://www.w3.org/TR/2001/REC-SVG-20010904/DTD/svg10.dtd">
<svg version="1.0" xmlns="http://www.w3.org/2000/svg"
 width="276.000000pt" height="153.000000pt" viewBox="0 0 276.000000 153.000000"
 preserveAspectRatio="xMidYMid meet">

<g transform="translate(0.000000,153.000000) scale(0.100000,-0.100000)"
fill="#000000" stroke="none">
<path d="M1313 1140 c-123 -26 -203 -114 -203 -225 0 -87 46 -157 132 -201 26
-13 97 -37 159 -54 126 -34 144 -43 159 -70 18 -33 11 -61 -23 -95 -82 -82
-246 -44 -278 66 -11 36 -15 39 -49 39 -79 0 -130 -12 -130 -30 0 -74 77 -193
149 -229 136 -69 351 -47 445 45 68 67 90 199 47 282 -43 85 -91 111 -337 181
-80 23 -107 46 -102 88 5 42 56 65 135 61 71 -4 108 -29 121 -82 5 -20 14 -31
25 -30 9 0 49 1 87 2 66 2 70 3 70 25 0 85 -84 190 -171 216 -56 17 -182 23
-236 11z m211 -21 c23 -6 55 -21 71 -33 l28 -22 -211 -1 c-116 0 -209 4 -206
9 7 10 61 39 94 49 38 11 176 10 224 -2z m-256 -619 c48 -78 249 -80 299 -4
14 21 23 24 84 24 75 0 78 -3 58 -57 -17 -46 -79 -102 -138 -124 -77 -29 -225
-29 -302 0 -62 24 -120 77 -144 133 -8 21 -15 40 -15 43 0 3 33 5 73 5 61 0
74 -3 85 -20z"/>
<path d="M120 725 l0 -405 85 0 85 0 0 405 0 405 -85 0 -85 0 0 -405z m150
365 l0 -30 -64 0 c-49 0 -65 4 -70 16 -15 39 -8 44 64 44 l70 0 0 -30z m4
-607 c3 -21 6 -64 6 -95 l0 -58 -75 0 -75 0 0 88 c0 49 3 92 7 95 3 4 34 7 68
7 l62 0 7 -37z"/>
<path d="M380 1060 l0 -70 115 0 115 0 0 -335 0 -335 90 0 90 0 2 333 3 332
118 3 117 3 0 69 0 70 -325 0 -325 0 0 -70z m630 32 l0 -29 -304 0 c-297 0
-305 0 -310 20 -3 11 -3 24 0 29 3 4 142 8 310 8 l304 0 0 -28z m-236 -618 c3
-26 6 -69 6 -95 l0 -49 -75 0 -75 0 0 88 c0 49 3 92 7 95 3 4 34 7 68 7 l62 0
7 -46z"/>
<path d="M1870 725 l0 -405 80 0 80 0 0 277 c0 152 3 273 8 269 4 -4 36 -127
72 -274 l65 -267 86 -3 86 -3 71 278 70 278 1 -277 1 -278 85 0 85 0 0 405 0
405 -130 0 -129 0 -10 -37 c-89 -340 -123 -468 -126 -471 -4 -4 -21 56 -86
306 l-53 202 -128 0 -128 0 0 -405z m244 379 c15 -40 10 -42 -109 -41 l-115 2
0 28 0 27 109 0 c90 0 110 -3 115 -16z m524 -11 l-3 -27 -112 -4 -113 -3 0 24
c0 13 3 27 7 30 3 4 55 7 115 7 l109 0 -3 -27z m-624 -595 c3 -13 6 -56 6 -95
l0 -73 -70 0 -70 0 0 64 c0 35 3 78 6 95 6 30 8 31 64 31 51 0 58 -2 64 -22z
m362 10 c-2 -7 -12 -50 -22 -95 l-17 -83 -73 0 c-61 0 -74 3 -78 18 -9 29 -36
153 -36 163 0 5 50 9 115 9 87 0 114 -3 111 -12z m264 -83 l0 -95 -65 0 -65 0
0 95 0 95 65 0 65 0 0 -95z"/>
</g>
</svg>
